# xmcd
#
# Track frame offsets: 
#        150
#        13694
#        23304
#        37089
#        51443
#        63102
#        78811
#        91557
#        103416
#        123108
#        134768
#        149930
#        168166
#        180203
#        191480
#
# Disc length: 2752 seconds
#
# Revision: 0
# Processed by: cddbd v1.4PL0 Copyright (c) Steve Scherf et al.
# Submitted via: ExactAudioCopy v0.90a11
#
DISCID=c00abe0f
DTITLE=Pickintime - It's "Pickintime"
DYEAR=1900
DGENRE=
TTITLE0=Nobody's Darlin'
TTITLE1=East Kentucky
TTITLE2=What Will I Leave Behind
TTITLE3=Pike County Mine
TTITLE4=I'll Take the Blame
TTITLE5=Gone Fishin'
TTITLE6=Nothin' To It
TTITLE7=Thanks Alot
TTITLE8=Simple Man
TTITLE9=Love Light
TTITLE10=Raining In Kentucky
TTITLE11=I'm Saying I'm Sorry
TTITLE12=Down In The Bluegrass
TTITLE13=No Hidding Place
TTITLE14=The Old Time Way
EXTD=
EXTT0=
EXTT1=
EXTT2=
EXTT3=
EXTT4=
EXTT5=
EXTT6=
EXTT7=
EXTT8=
EXTT9=
EXTT10=
EXTT11=
EXTT12=
EXTT13=
EXTT14=
PLAYORDER=
